<mxfile host="840ee176-ca9f-41a4-8467-a20cf93d2d7e" modified="2020-10-14T15:41:55.605Z" agent="5.0 (Macintosh; Intel Mac OS X 10_15_7) AppleWebKit/537.36 (KHTML, like Gecko) Code/1.48.0 Chrome/78.0.3904.130 Electron/7.3.2 Safari/537.36" etag="WXDjqRaZPY4Ur05JAkV-" version="13.1.3" pages="6">
    <diagram id="wap1u_BhtvA-MSTjVU54" name="Writing">
        <mxGraphModel dx="898" dy="566" grid="0" gridSize="10" guides="1" tooltips="1" connect="1" arrows="1" fold="1" page="1" pageScale="1" pageWidth="827" pageHeight="1169" background="none" math="0" shadow="0">
            <root>
                <mxCell id="hPSyAhn5ql_w3iMClU-f-0"/>
                <mxCell id="hPSyAhn5ql_w3iMClU-f-1" parent="hPSyAhn5ql_w3iMClU-f-0"/>
                <mxCell id="hPSyAhn5ql_w3iMClU-f-2" value="&lt;table cellpadding=&quot;4&quot; cellspacing=&quot;0&quot; border=&quot;1&quot; style=&quot;font-size: 12px ; width: 100% ; height: 100%&quot;&gt;&lt;tbody style=&quot;font-size: 12px&quot;&gt;&lt;tr style=&quot;font-size: 12px&quot;&gt;&lt;th style=&quot;font-size: 12px&quot;&gt;Type&lt;/th&gt;&lt;th style=&quot;font-size: 12px&quot;&gt;Content&lt;/th&gt;&lt;/tr&gt;&lt;tr&gt;&lt;td&gt;Page&lt;/td&gt;&lt;td&gt;Margin&lt;br&gt;&lt;ol&gt;&lt;li&gt;A4 - 15pt for left, right and top margin&lt;/li&gt;&lt;/ol&gt;&lt;/td&gt;&lt;/tr&gt;&lt;tr style=&quot;font-size: 12px&quot;&gt;&lt;td style=&quot;font-size: 12px&quot;&gt;Text&lt;/td&gt;&lt;td style=&quot;font-size: 12px&quot;&gt;&lt;ol style=&quot;font-size: 12px&quot;&gt;&lt;li style=&quot;font-size: 12px&quot;&gt;&lt;i style=&quot;font-size: 12px&quot;&gt;term first used - italic&lt;/i&gt;&lt;/li&gt;&lt;li style=&quot;font-size: 12px&quot;&gt;&lt;b style=&quot;font-size: 12px&quot;&gt;emphasze - bold&lt;/b&gt;&lt;/li&gt;&lt;li&gt;&lt;font face=&quot;Courier New&quot;&gt;code - mono&lt;/font&gt;&lt;/li&gt;&lt;/ol&gt;&lt;/td&gt;&lt;/tr&gt;&lt;tr style=&quot;font-size: 12px&quot;&gt;&lt;td style=&quot;font-size: 12px&quot;&gt;Code&lt;/td&gt;&lt;td style=&quot;font-size: 12px&quot;&gt;&lt;ol style=&quot;font-size: 12px&quot;&gt;&lt;li style=&quot;font-size: 12px&quot;&gt;&lt;font face=&quot;Courier New&quot;&gt;foo&lt;/font&gt; - refers to variables and function parameters&lt;/li&gt;&lt;li style=&quot;font-size: 12px&quot;&gt;&lt;font face=&quot;Courier New&quot;&gt;bar/&lt;/font&gt; - refers to paths&lt;/li&gt;&lt;li style=&quot;font-size: 12px&quot;&gt;&lt;font face=&quot;Courier New&quot;&gt;foo()&lt;/font&gt; - refers to functions&lt;/li&gt;&lt;li style=&quot;font-size: 12px&quot;&gt;&lt;font face=&quot;Courier New&quot;&gt;&amp;lt;d&amp;gt; &lt;/font&gt;&lt;span&gt;- means default&lt;/span&gt;&lt;br&gt;&lt;/li&gt;&lt;li&gt;&lt;font face=&quot;Courier New&quot;&gt;&amp;lt;?&amp;gt;&lt;/font&gt;&amp;nbsp;- means optional&lt;/li&gt;&lt;li style=&quot;font-size: 12px&quot;&gt;&lt;font style=&quot;font-size: 12px&quot;&gt;&lt;font face=&quot;Courier New&quot;&gt;&amp;lt;*&amp;gt; &lt;/font&gt;- means optinal or repeating, from zero to any&lt;/font&gt;&lt;/li&gt;&lt;li style=&quot;font-size: 12px&quot;&gt;&lt;font style=&quot;font-size: 12px&quot;&gt;&lt;font face=&quot;Courier New&quot;&gt;&amp;lt;+&amp;gt;&lt;/font&gt; - means required or repeating, from one to any&lt;/font&gt;&lt;/li&gt;&lt;li&gt;&lt;font face=&quot;Courier New&quot;&gt;v1|v2&lt;/font&gt;&lt;span&gt; - &lt;/span&gt;&lt;font face=&quot;Courier New&quot;&gt;|&lt;/font&gt;&lt;span&gt; collects different values with same function&lt;/span&gt;&lt;br&gt;&lt;/li&gt;&lt;li&gt;&lt;font face=&quot;Courier New&quot;&gt;(v1|v2)&amp;nbsp;&lt;/font&gt;-&amp;nbsp;&lt;font face=&quot;Courier New&quot;&gt;()&lt;/font&gt;&amp;nbsp;groups elements, e.g.,&amp;nbsp;&lt;font face=&quot;Courier New&quot;&gt;(v1|v2)&amp;lt;?&amp;gt;&lt;/font&gt;&lt;/li&gt;&lt;li style=&quot;font-size: 12px&quot;&gt;&lt;font face=&quot;Courier New&quot; style=&quot;font-size: 12px&quot;&gt;[v1&amp;lt;d&amp;gt;, v2, v3, ...]&lt;/font&gt; - a list of different values, &lt;font face=&quot;Courier New&quot; style=&quot;font-size: 12px&quot;&gt;v1&lt;/font&gt;&amp;nbsp;is the default value when not specified&lt;/li&gt;&lt;li style=&quot;font-size: 12px&quot;&gt;&lt;font face=&quot;Courier New&quot;&gt;{k1: v1, k2&amp;lt;?&amp;gt;: v2, ...}&lt;/font&gt; - a list of key values. &lt;font face=&quot;Courier New&quot;&gt;k2&lt;/font&gt;&amp;nbsp;is optional&lt;br&gt;&lt;/li&gt;&lt;/ol&gt;&lt;h3&gt;Examples&lt;/h3&gt;&lt;div&gt;&lt;ol&gt;&lt;li&gt;&lt;font face=&quot;Courier New&quot;&gt;[v1, v2, ...]&amp;lt;*&amp;gt;&lt;/font&gt;&amp;nbsp;- zero or multiple values can be specified, not just one&lt;/li&gt;&lt;/ol&gt;&lt;/div&gt;&lt;/td&gt;&lt;/tr&gt;&lt;/tbody&gt;&lt;/table&gt; " style="verticalAlign=top;align=left;overflow=fill;fontSize=12;fontFamily=Helvetica;html=1;fillColor=#ffffff;rotation=0;" parent="hPSyAhn5ql_w3iMClU-f-1" vertex="1">
                    <mxGeometry x="15" y="15" width="606" height="425" as="geometry"/>
                </mxCell>
            </root>
        </mxGraphModel>
    </diagram>
    <diagram id="yRjaZhJWLuEMU4PNBZJb" name="Color">
        <mxGraphModel dx="898" dy="566" grid="1" gridSize="10" guides="1" tooltips="1" connect="1" arrows="1" fold="1" page="1" pageScale="1" pageWidth="827" pageHeight="1169" math="0" shadow="0">
            <root>
                <mxCell id="1CLzT-UbzhW50ANc2oSt-0"/>
                <mxCell id="1CLzT-UbzhW50ANc2oSt-1" parent="1CLzT-UbzhW50ANc2oSt-0"/>
                <mxCell id="1CLzT-UbzhW50ANc2oSt-2" value="&lt;table cellpadding=&quot;4&quot; cellspacing=&quot;0&quot; border=&quot;1&quot; style=&quot;font-size: 1em ; width: 100% ; height: 100%&quot;&gt;&lt;tbody&gt;&lt;tr&gt;&lt;th&gt;Type&lt;/th&gt;&lt;th&gt;Content&lt;br&gt;&lt;/th&gt;&lt;/tr&gt;&lt;tr&gt;&lt;td&gt;Color&lt;/td&gt;&lt;td&gt;&lt;ol&gt;&lt;li&gt;&lt;span style=&quot;font-family: &amp;#34;verdana&amp;#34;&quot;&gt;RGB (red, green, blue) - computer and televisin&lt;/span&gt;&lt;/li&gt;&lt;li&gt;&lt;span style=&quot;font-family: &amp;#34;verdana&amp;#34;&quot;&gt;CMYK (cyan, megenta, yellow, black) - printing&lt;/span&gt;&lt;/li&gt;&lt;/ol&gt;&lt;/td&gt;&lt;/tr&gt;&lt;tr&gt;&lt;td&gt;&lt;div&gt;Notations&lt;/div&gt;&lt;/td&gt;&lt;td&gt;&lt;ol&gt;&lt;li&gt;keywords: &lt;font face=&quot;Courier New&quot;&gt;&quot;red&quot;, &quot;blue&quot;, ...&lt;/font&gt;&lt;/li&gt;&lt;li&gt;RGB: &lt;font face=&quot;Courier New&quot;&gt;RGB(255, 0, 0)&lt;/font&gt;&lt;/li&gt;&lt;li&gt;hexadecimal: &lt;font face=&quot;Courier New&quot;&gt;&quot;#ff0000&quot;&lt;/font&gt;&lt;/li&gt;&lt;li&gt;HSL: &lt;font face=&quot;Courier New&quot;&gt;HSL(0, 1, 0.5)&lt;/font&gt;&lt;/li&gt;&lt;/ol&gt;&lt;/td&gt;&lt;/tr&gt;&lt;tr&gt;&lt;td&gt;Categories&lt;/td&gt;&lt;td&gt;&lt;h3&gt;&lt;span&gt;Sequential Color Scale&lt;/span&gt;&lt;/h3&gt;&lt;span&gt;&lt;ol&gt;&lt;li&gt;&amp;nbsp;color varies from light to dark, or dark to light&lt;/li&gt;&lt;li&gt;often with a simutaneous shift in hue and/or saturation&lt;/li&gt;&lt;/ol&gt;&lt;/span&gt;&lt;h3&gt;&lt;span&gt;Diverging Color Scale&lt;/span&gt;&lt;/h3&gt;&lt;span&gt;&lt;ol&gt;&lt;li&gt;use white or light gray as the center shade&amp;nbsp;&amp;nbsp;&lt;/li&gt;&lt;/ol&gt;&lt;/span&gt;&lt;h3&gt;&lt;span&gt;Categorical Color&lt;/span&gt;&lt;/h3&gt;&lt;/td&gt;&lt;/tr&gt;&lt;/tbody&gt;&lt;/table&gt; " style="verticalAlign=top;align=left;overflow=fill;fontSize=12;fontFamily=Helvetica;html=1" vertex="1" parent="1CLzT-UbzhW50ANc2oSt-1">
                    <mxGeometry x="15" y="15" width="430" height="370" as="geometry"/>
                </mxCell>
            </root>
        </mxGraphModel>
    </diagram>
    <diagram id="oF5KC3iEQPtha0IU7w0N" name="Font">
        <mxGraphModel dx="898" dy="566" grid="1" gridSize="10" guides="1" tooltips="1" connect="1" arrows="1" fold="1" page="1" pageScale="1" pageWidth="827" pageHeight="1169" math="0" shadow="0">
            <root>
                <mxCell id="TBLeF-N8mXJ4oL1E92x8-0"/>
                <mxCell id="TBLeF-N8mXJ4oL1E92x8-1" parent="TBLeF-N8mXJ4oL1E92x8-0"/>
                <mxCell id="TBLeF-N8mXJ4oL1E92x8-3" value="&lt;table cellpadding=&quot;4&quot; cellspacing=&quot;0&quot; border=&quot;1&quot; style=&quot;font-size: 1em ; width: 100% ; height: 100% ; border: 1px solid rgb(221 , 221 , 221) ; border-collapse: collapse&quot;&gt;&lt;tbody&gt;&lt;tr&gt;&lt;th&gt;&lt;span style=&quot;font-weight: normal&quot;&gt;elements&lt;/span&gt;&lt;/th&gt;&lt;td&gt;box&lt;/td&gt;&lt;th style=&quot;text-align: center&quot;&gt;&lt;span style=&quot;font-weight: normal&quot;&gt;font-family&lt;/span&gt;&lt;/th&gt;&lt;td&gt;&lt;span&gt;font-size&lt;/span&gt;&lt;/td&gt;&lt;td&gt;&lt;span&gt;line-height&lt;/span&gt;&lt;/td&gt;&lt;td&gt;&lt;span&gt;color&lt;/span&gt;&lt;/td&gt;&lt;td&gt;background-color&lt;/td&gt;&lt;td&gt;&lt;span&gt;font-weight&lt;/span&gt;&lt;/td&gt;&lt;td&gt;&lt;span&gt;letter-spacing&lt;/span&gt;&lt;/td&gt;&lt;td&gt;&lt;span&gt;text-align&lt;/span&gt;&lt;/td&gt;&lt;td&gt;&lt;span&gt;text-decoration&lt;/span&gt;&lt;/td&gt;&lt;td&gt;cursor&lt;/td&gt;&lt;/tr&gt;&lt;tr&gt;&lt;td style=&quot;background-color: rgb(237 , 64 , 64)&quot;&gt;&lt;font color=&quot;#ffffff&quot;&gt;html normalize.css&lt;/font&gt;&lt;/td&gt;&lt;td&gt;&lt;br&gt;&lt;/td&gt;&lt;td&gt;&lt;br&gt;&lt;/td&gt;&lt;td&gt;&lt;br&gt;&lt;/td&gt;&lt;td&gt;&lt;br&gt;&lt;/td&gt;&lt;td&gt;&lt;br&gt;&lt;/td&gt;&lt;td&gt;&lt;br&gt;&lt;/td&gt;&lt;td&gt;&lt;br&gt;&lt;/td&gt;&lt;td&gt;&lt;br&gt;&lt;/td&gt;&lt;td&gt;&lt;br&gt;&lt;/td&gt;&lt;td&gt;&lt;br&gt;&lt;/td&gt;&lt;td&gt;&lt;br&gt;&lt;/td&gt;&lt;/tr&gt;&lt;tr&gt;&lt;td&gt;&lt;span&gt;&amp;lt;body&amp;gt;&amp;lt;/body&amp;gt;&lt;/span&gt;&lt;/td&gt;&lt;td&gt;&lt;br&gt;&lt;/td&gt;&lt;td&gt;&lt;font&gt;&lt;span&gt;Verdana, &lt;br&gt;Helvetica, &lt;br&gt;Arial, &lt;br&gt;sans-serif&lt;br&gt;&lt;/span&gt;&lt;/font&gt;&lt;/td&gt;&lt;td&gt;&lt;span&gt;100%&lt;/span&gt;&lt;/td&gt;&lt;td&gt;&lt;span&gt;1.5&lt;/span&gt;&lt;/td&gt;&lt;td&gt;#181818&lt;span&gt;&lt;br&gt;&lt;/span&gt;&lt;/td&gt;&lt;td&gt;&lt;br&gt;&lt;/td&gt;&lt;td&gt;&lt;span&gt;normal&lt;/span&gt;&lt;/td&gt;&lt;td&gt;&lt;span&gt;&lt;br&gt;&lt;/span&gt;&lt;/td&gt;&lt;td&gt;&lt;span&gt;&lt;br&gt;&lt;/span&gt;&lt;/td&gt;&lt;td&gt;&lt;span&gt;&lt;br&gt;&lt;/span&gt;&lt;/td&gt;&lt;td&gt;&lt;br&gt;&lt;/td&gt;&lt;/tr&gt;&lt;tr style=&quot;line-height: 130%&quot;&gt;&lt;td&gt;&lt;span&gt;&lt;b&gt;&amp;lt;h1&amp;gt;&amp;lt;/h1&amp;gt;&lt;br&gt;&lt;/b&gt;&lt;br&gt;&lt;b&gt;&lt;font style=&quot;font-size: 24px&quot;&gt;Hello, World!&lt;/font&gt;&lt;/b&gt;&lt;/span&gt;&lt;/td&gt;&lt;td&gt;&lt;br&gt;&lt;/td&gt;&lt;td&gt;&lt;/td&gt;&lt;td&gt;&lt;span&gt;2em&lt;/span&gt;&lt;/td&gt;&lt;td&gt;&lt;span&gt;1.3em&lt;br&gt;&lt;/span&gt;&lt;/td&gt;&lt;td&gt;&lt;/td&gt;&lt;td&gt;&lt;br&gt;&lt;/td&gt;&lt;td&gt;&lt;span&gt;&lt;b&gt;600&lt;/b&gt;&lt;/span&gt;&lt;/td&gt;&lt;td&gt;&lt;span&gt;&lt;br&gt;&lt;/span&gt;&lt;/td&gt;&lt;td&gt;&lt;br&gt;&lt;/td&gt;&lt;td&gt;&lt;span&gt;&lt;br&gt;&lt;/span&gt;&lt;/td&gt;&lt;td&gt;&lt;br&gt;&lt;/td&gt;&lt;/tr&gt;&lt;tr&gt;&lt;td&gt;&lt;font color=&quot;#888888&quot;&gt;.dateline&lt;br&gt;&lt;br&gt;Last updated July 10, 2020&lt;/font&gt;&lt;/td&gt;&lt;td&gt;&lt;br&gt;&lt;/td&gt;&lt;td&gt;&lt;br&gt;&lt;/td&gt;&lt;td&gt;&lt;br&gt;&lt;/td&gt;&lt;td&gt;1.5&lt;/td&gt;&lt;td&gt;&lt;font color=&quot;#888888&quot;&gt;#888&lt;/font&gt;&lt;/td&gt;&lt;td&gt;&lt;br&gt;&lt;/td&gt;&lt;td&gt;300&lt;/td&gt;&lt;td&gt;&lt;br&gt;&lt;/td&gt;&lt;td&gt;&lt;br&gt;&lt;/td&gt;&lt;td&gt;&lt;br&gt;&lt;/td&gt;&lt;td&gt;&lt;br&gt;&lt;/td&gt;&lt;/tr&gt;&lt;tr style=&quot;line-height: 140%&quot;&gt;&lt;td&gt;&lt;b&gt;&amp;lt;h2&amp;gt;&amp;lt;/h2&amp;gt;&lt;br&gt;&lt;/b&gt;&lt;br&gt;&lt;font style=&quot;font-size: 19px&quot;&gt;&lt;b&gt;Hello, world!&lt;/b&gt;&lt;/font&gt;&lt;/td&gt;&lt;td&gt;&lt;/td&gt;&lt;td&gt;&lt;br&gt;&lt;/td&gt;&lt;td&gt;24px&lt;/td&gt;&lt;td&gt;1.4em&lt;/td&gt;&lt;td&gt;&lt;/td&gt;&lt;td&gt;&lt;br&gt;&lt;/td&gt;&lt;td&gt;&lt;b&gt;600&lt;/b&gt;&lt;br&gt;&lt;/td&gt;&lt;td&gt;1px&lt;/td&gt;&lt;td&gt;&lt;br&gt;&lt;/td&gt;&lt;td&gt;&lt;br&gt;&lt;/td&gt;&lt;td&gt;&lt;br&gt;&lt;/td&gt;&lt;/tr&gt;&lt;tr style=&quot;line-height: 160%&quot;&gt;&lt;td&gt;&amp;lt;p&amp;gt;&amp;lt;/p&amp;gt;&lt;br&gt;hello,...............world!&lt;/td&gt;&lt;td&gt;&lt;br&gt;&lt;/td&gt;&lt;td&gt;&lt;br&gt;&lt;/td&gt;&lt;td&gt;&lt;br&gt;&lt;/td&gt;&lt;td&gt;1.6em&lt;/td&gt;&lt;td&gt;&lt;br&gt;&lt;/td&gt;&lt;td&gt;&lt;br&gt;&lt;/td&gt;&lt;td&gt;300&lt;/td&gt;&lt;td&gt;&lt;br&gt;&lt;/td&gt;&lt;td&gt;&lt;br&gt;&lt;/td&gt;&lt;td&gt;&lt;br&gt;&lt;/td&gt;&lt;td&gt;&lt;br&gt;&lt;/td&gt;&lt;/tr&gt;&lt;tr&gt;&lt;td&gt;&lt;span&gt;&lt;font color=&quot;#1886a8&quot;&gt;&amp;lt;a&amp;gt;&amp;lt;/a&amp;gt;&lt;br&gt;&lt;/font&gt;&lt;br&gt;&lt;font color=&quot;#1886a8&quot;&gt;https://www.helloworld.com&lt;/font&gt;&lt;/span&gt;&lt;/td&gt;&lt;td&gt;&lt;br&gt;&lt;/td&gt;&lt;td&gt;&lt;/td&gt;&lt;td&gt;&lt;span&gt;&lt;br&gt;&lt;/span&gt;&lt;/td&gt;&lt;td&gt;&lt;span&gt;&lt;br&gt;&lt;/span&gt;&lt;/td&gt;&lt;td&gt;&lt;font color=&quot;#118df0&quot;&gt;#&lt;/font&gt;&lt;font color=&quot;#1886a8&quot;&gt;1886a8&lt;/font&gt;&lt;br&gt;&lt;/td&gt;&lt;td&gt;&lt;br&gt;&lt;/td&gt;&lt;td&gt;&lt;span&gt;300&lt;/span&gt;&lt;/td&gt;&lt;td&gt;&lt;span&gt;&lt;br&gt;&lt;/span&gt;&lt;/td&gt;&lt;td&gt;&lt;span&gt;&lt;br&gt;&lt;/span&gt;&lt;/td&gt;&lt;td&gt;&lt;span&gt;none&lt;/span&gt;&lt;/td&gt;&lt;td&gt;pointer&lt;/td&gt;&lt;/tr&gt;&lt;tr&gt;&lt;td&gt;&amp;lt;ul&amp;gt;&amp;lt;/ul&amp;gt;&lt;/td&gt;&lt;td&gt;&lt;br&gt;&lt;/td&gt;&lt;td&gt;&lt;br&gt;&lt;/td&gt;&lt;td&gt;&lt;/td&gt;&lt;td&gt;1.5em&lt;/td&gt;&lt;td&gt;&lt;br&gt;&lt;/td&gt;&lt;td&gt;&lt;br&gt;&lt;/td&gt;&lt;td&gt;lighter&lt;/td&gt;&lt;td&gt;&lt;br&gt;&lt;/td&gt;&lt;td&gt;&lt;br&gt;&lt;/td&gt;&lt;td&gt;&lt;br&gt;&lt;/td&gt;&lt;td&gt;&lt;br&gt;&lt;/td&gt;&lt;/tr&gt;&lt;tr&gt;&lt;td&gt;&amp;lt;table&amp;gt;&amp;lt;/table&amp;gt;&lt;/td&gt;&lt;td&gt;border: 1px solid #ddd&lt;br&gt;&lt;/td&gt;&lt;td&gt;&lt;br&gt;&lt;/td&gt;&lt;td&gt;&lt;br&gt;&lt;/td&gt;&lt;td&gt;&lt;br&gt;&lt;/td&gt;&lt;td&gt;&lt;br&gt;&lt;/td&gt;&lt;td&gt;&lt;br&gt;&lt;/td&gt;&lt;td&gt;&lt;br&gt;&lt;/td&gt;&lt;td&gt;&lt;br&gt;&lt;/td&gt;&lt;td&gt;&lt;br&gt;&lt;/td&gt;&lt;td&gt;&lt;br&gt;&lt;/td&gt;&lt;td&gt;&lt;br&gt;&lt;/td&gt;&lt;/tr&gt;&lt;tr&gt;&lt;td&gt;&lt;font color=&quot;#4c4c4c&quot;&gt;&lt;b&gt;(.user-nav)&lt;br&gt;&lt;/b&gt;&lt;/font&gt;&lt;br&gt;&lt;b&gt;&lt;font color=&quot;#4c4c4c&quot; style=&quot;font-size: 10px&quot;&gt;HELP&amp;nbsp; &amp;nbsp;FORUM&amp;nbsp; &amp;nbsp;LOGIN&lt;/font&gt;&lt;/b&gt;&lt;/td&gt;&lt;td&gt;&lt;/td&gt;&lt;td&gt;&lt;br&gt;&lt;/td&gt;&lt;td&gt;12px&lt;/td&gt;&lt;td&gt;32px&lt;/td&gt;&lt;td&gt;&lt;span style=&quot;color: rgb(76 , 76 , 76)&quot;&gt;#4c4c4c&lt;/span&gt;&lt;br&gt;&lt;/td&gt;&lt;td&gt;&lt;br&gt;&lt;/td&gt;&lt;td&gt;&lt;b&gt;600&lt;/b&gt;&lt;/td&gt;&lt;td&gt;1px&lt;/td&gt;&lt;td&gt;&lt;br&gt;&lt;/td&gt;&lt;td&gt;none&lt;/td&gt;&lt;td&gt;&lt;br&gt;&lt;/td&gt;&lt;/tr&gt;&lt;tr&gt;&lt;td&gt;&lt;font color=&quot;#4c4c4c&quot;&gt;(.sidebar-nav)&lt;br&gt;&lt;br&gt;Getting Started&lt;br&gt;&lt;br&gt;Account&lt;br&gt;&lt;br&gt;Marketing&lt;br&gt;&lt;br&gt;...&lt;/font&gt;&lt;br&gt;&lt;/td&gt;&lt;td&gt;&lt;br&gt;&lt;/td&gt;&lt;td&gt;&lt;br&gt;&lt;/td&gt;&lt;td&gt;16px&lt;/td&gt;&lt;td&gt;1em&lt;/td&gt;&lt;td&gt;&lt;font color=&quot;#4c4c4c&quot;&gt;#4c4c4c&lt;/font&gt;&lt;/td&gt;&lt;td&gt;&lt;br&gt;&lt;/td&gt;&lt;td&gt;300&lt;br&gt;:hover: &lt;b&gt;600&lt;/b&gt;&lt;/td&gt;&lt;td&gt;&lt;br&gt;&lt;/td&gt;&lt;td&gt;&lt;br&gt;&lt;/td&gt;&lt;td&gt;&lt;br&gt;&lt;/td&gt;&lt;td&gt;&lt;br&gt;&lt;/td&gt;&lt;/tr&gt;&lt;tr&gt;&lt;td style=&quot;background-color: rgb(245 , 245 , 245)&quot;&gt;(.table-of-contents)&lt;br&gt;&lt;br&gt;&lt;span&gt;&lt;font color=&quot;#444444&quot;&gt;&lt;b&gt;Contents (.toc-title)&lt;/b&gt;&lt;/font&gt;&lt;/span&gt;&lt;/td&gt;&lt;td&gt;&lt;br&gt;&lt;/td&gt;&lt;td&gt;&lt;br&gt;&lt;/td&gt;&lt;td&gt;18px&lt;/td&gt;&lt;td&gt;1em&lt;/td&gt;&lt;td&gt;#444&lt;/td&gt;&lt;td style=&quot;background-color: rgb(245 , 245 , 245)&quot;&gt;#f5f5f5&lt;/td&gt;&lt;td&gt;500&lt;/td&gt;&lt;td&gt;&lt;br&gt;&lt;/td&gt;&lt;td&gt;&lt;br&gt;&lt;/td&gt;&lt;td&gt;&lt;br&gt;&lt;/td&gt;&lt;td&gt;&lt;br&gt;&lt;/td&gt;&lt;/tr&gt;&lt;tr&gt;&lt;td style=&quot;background-color: rgb(245 , 245 , 245)&quot;&gt;&lt;div&gt;&lt;font color=&quot;#b8b8b8&quot;&gt;(.toc-links)&lt;/font&gt;&lt;/div&gt;&lt;ol style=&quot;line-height: 140%&quot;&gt;&lt;li&gt;&lt;font color=&quot;#b8b8b8&quot;&gt;li: chapter1&lt;/font&gt;&lt;/li&gt;&lt;li&gt;&lt;font color=&quot;#b8b8b8&quot;&gt;li: chapter2&lt;/font&gt;&lt;/li&gt;&lt;li&gt;&lt;font color=&quot;#737373&quot;&gt;li a: chapter3&lt;/font&gt;&lt;/li&gt;&lt;li&gt;&lt;font color=&quot;#737373&quot;&gt;li a: chapter4&lt;/font&gt;&lt;/li&gt;&lt;/ol&gt;&lt;/td&gt;&lt;td&gt;&lt;br&gt;&lt;/td&gt;&lt;td&gt;&lt;br&gt;&lt;/td&gt;&lt;td&gt;14px&lt;/td&gt;&lt;td&gt;1.4em&lt;/td&gt;&lt;td&gt;&lt;font color=&quot;#b8b8b8&quot;&gt;li: #b8b8b8&lt;br&gt;&lt;/font&gt;&lt;font color=&quot;#737373&quot;&gt;li a:#737373&lt;/font&gt;&lt;/td&gt;&lt;td style=&quot;background-color: rgb(245 , 245 , 245)&quot;&gt;&lt;br&gt;&lt;/td&gt;&lt;td&gt;300&lt;/td&gt;&lt;td&gt;&lt;br&gt;&lt;/td&gt;&lt;td&gt;&lt;br&gt;&lt;/td&gt;&lt;td&gt;li a: none&lt;/td&gt;&lt;td&gt;&lt;br&gt;&lt;/td&gt;&lt;/tr&gt;&lt;tr style=&quot;line-height: 140%&quot;&gt;&lt;td style=&quot;background-color: rgb(227 , 227 , 227)&quot;&gt;&amp;lt;h3&amp;gt;&amp;lt;/h3&amp;gt;&lt;br&gt;.related-articals&lt;br&gt;&lt;br&gt;&lt;b&gt;&lt;font style=&quot;font-size: 16px&quot;&gt;Related articals&lt;/font&gt;&lt;/b&gt; (.related-articals-title)&lt;br&gt;&lt;/td&gt;&lt;td&gt;&lt;br&gt;&lt;/td&gt;&lt;td&gt;&lt;br&gt;&lt;/td&gt;&lt;td&gt;21px&lt;/td&gt;&lt;td&gt;1.4em&lt;/td&gt;&lt;td&gt;&lt;br&gt;&lt;/td&gt;&lt;td&gt;&lt;br&gt;&lt;/td&gt;&lt;td&gt;600&lt;/td&gt;&lt;td&gt;1px&lt;/td&gt;&lt;td&gt;&lt;br&gt;&lt;/td&gt;&lt;td&gt;&lt;br&gt;&lt;/td&gt;&lt;td&gt;&lt;br&gt;&lt;/td&gt;&lt;/tr&gt;&lt;tr&gt;&lt;td style=&quot;background-color: rgb(227 , 227 , 227)&quot;&gt;&lt;font color=&quot;#d61313&quot; style=&quot;line-height: 150%&quot;&gt;Changing colors&lt;br&gt;Chaning fonts&lt;br&gt;Chaning others&lt;/font&gt;&lt;br&gt;&lt;/td&gt;&lt;td&gt;&lt;br&gt;&lt;/td&gt;&lt;td&gt;&lt;br&gt;&lt;/td&gt;&lt;td&gt;&lt;br&gt;&lt;/td&gt;&lt;td&gt;1.5&lt;/td&gt;&lt;td&gt;&lt;font color=&quot;#d61313&quot;&gt;#d61313&lt;/font&gt;&lt;/td&gt;&lt;td&gt;&lt;br&gt;&lt;/td&gt;&lt;td&gt;lighter&lt;/td&gt;&lt;td&gt;&lt;br&gt;&lt;/td&gt;&lt;td&gt;&lt;br&gt;&lt;/td&gt;&lt;td&gt;&lt;br&gt;&lt;/td&gt;&lt;td&gt;&lt;br&gt;&lt;/td&gt;&lt;/tr&gt;&lt;/tbody&gt;&lt;/table&gt; " style="verticalAlign=top;align=left;overflow=fill;fontSize=12;fontFamily=Verdana;html=1;fillColor=#ffffff;fontColor=#181818;fontStyle=0;labelBorderColor=none;strokeColor=none;" parent="TBLeF-N8mXJ4oL1E92x8-1" vertex="1">
                    <mxGeometry x="10" y="20" width="1370" height="920" as="geometry"/>
                </mxCell>
            </root>
        </mxGraphModel>
    </diagram>
    <diagram id="EEBN6Ym8wghA3_XjR5zi" name="Document">
        <mxGraphModel dx="898" dy="566" grid="0" gridSize="10" guides="1" tooltips="1" connect="1" arrows="1" fold="1" page="1" pageScale="1" pageWidth="827" pageHeight="1169" math="0" shadow="0">
            <root>
                <mxCell id="WBPMw331770hnV6kPofC-0"/>
                <mxCell id="WBPMw331770hnV6kPofC-1" parent="WBPMw331770hnV6kPofC-0"/>
                <mxCell id="WBPMw331770hnV6kPofC-2" value="&lt;table cellpadding=&quot;4&quot; cellspacing=&quot;0&quot; border=&quot;1&quot; style=&quot;font-size: 1em ; width: 100% ; height: 100%&quot;&gt;&lt;tbody&gt;&lt;tr&gt;&lt;th&gt;Type&lt;/th&gt;&lt;th&gt;Content&lt;/th&gt;&lt;/tr&gt;&lt;tr&gt;&lt;td&gt;Book&lt;/td&gt;&lt;td&gt;&lt;font face=&quot;Courier New&quot;&gt;Preface&lt;br&gt;1. Introduction&lt;br&gt;2. ...&lt;br&gt;...&lt;/font&gt;&lt;br style=&quot;font-family: &amp;#34;courier new&amp;#34;&quot;&gt;&lt;span style=&quot;font-family: &amp;#34;courier new&amp;#34;&quot;&gt;References&lt;/span&gt;&lt;font face=&quot;Courier New&quot;&gt;&lt;br&gt;Appendix&lt;br&gt;A Content A&lt;br&gt;&amp;nbsp; A.1&lt;br&gt;&amp;nbsp; A.2&lt;br&gt;B Content B&lt;br&gt;&amp;nbsp; B.1&lt;/font&gt;&lt;/td&gt;&lt;/tr&gt;&lt;tr&gt;&lt;td&gt;Document&lt;br&gt;Sections&lt;/td&gt;&lt;td&gt;&lt;ol&gt;&lt;li&gt;Title&lt;/li&gt;&lt;li&gt;Description&lt;/li&gt;&lt;li&gt;Details&lt;/li&gt;&lt;li&gt;Usage&lt;/li&gt;&lt;li&gt;Dependencies&lt;/li&gt;&lt;li&gt;Parameters | Arguments | Options&lt;/li&gt;&lt;li&gt;Returns | Value&lt;/li&gt;&lt;li&gt;Attributes&lt;/li&gt;&lt;li&gt;Methods&lt;/li&gt;&lt;li&gt;See Also&lt;/li&gt;&lt;li&gt;Notes&lt;/li&gt;&lt;li&gt;References&lt;/li&gt;&lt;li&gt;Examples&lt;/li&gt;&lt;/ol&gt;&lt;/td&gt;&lt;/tr&gt;&lt;/tbody&gt;&lt;/table&gt; " style="verticalAlign=top;align=left;overflow=fill;fontSize=12;fontFamily=Helvetica;html=1" parent="WBPMw331770hnV6kPofC-1" vertex="1">
                    <mxGeometry x="15" y="15" width="339" height="498" as="geometry"/>
                </mxCell>
            </root>
        </mxGraphModel>
    </diagram>
    <diagram id="pb_eyI4GY9llomDhxR_U" name="Code-Style">
        <mxGraphModel dx="898" dy="566" grid="0" gridSize="10" guides="1" tooltips="1" connect="1" arrows="1" fold="1" page="1" pageScale="1" pageWidth="827" pageHeight="1169" math="0" shadow="0">
            <root>
                <mxCell id="XXuJ3og1RrRb2iz00N9P-0"/>
                <mxCell id="XXuJ3og1RrRb2iz00N9P-1" parent="XXuJ3og1RrRb2iz00N9P-0"/>
                <mxCell id="XXuJ3og1RrRb2iz00N9P-2" value="&lt;table cellpadding=&quot;4&quot; cellspacing=&quot;0&quot; border=&quot;1&quot; style=&quot;font-size: 1em ; width: 100% ; height: 100%&quot;&gt;&lt;tbody&gt;&lt;tr&gt;&lt;th&gt;style&lt;/th&gt;&lt;th&gt;python&lt;/th&gt;&lt;/tr&gt;&lt;tr&gt;&lt;td&gt;&lt;h3&gt;variable name&lt;/h3&gt;&lt;div&gt;&lt;ol&gt;&lt;li&gt;local, parameter, instance&lt;/li&gt;&lt;li&gt;constant&lt;/li&gt;&lt;li&gt;class, interface&lt;/li&gt;&lt;li&gt;function, method&lt;/li&gt;&lt;/ol&gt;&lt;/div&gt;&lt;/td&gt;&lt;td&gt;&lt;div&gt;&lt;div&gt;&lt;h3&gt;&lt;br&gt;&lt;/h3&gt;&lt;ol&gt;&lt;li&gt;lowercase noun&lt;/li&gt;&lt;li&gt;capitalized&lt;/li&gt;&lt;li&gt;CamelCases&lt;/li&gt;&lt;li&gt;lowercase, seperated by underscores&lt;/li&gt;&lt;/ol&gt;&lt;/div&gt;&lt;/div&gt;&lt;/td&gt;&lt;/tr&gt;&lt;tr&gt;&lt;td&gt;&lt;h3&gt;special&lt;/h3&gt;&lt;/td&gt;&lt;td&gt;&lt;ol&gt;&lt;li&gt;single leading _ variables (_internal) for internal use&lt;/li&gt;&lt;/ol&gt;&lt;/td&gt;&lt;/tr&gt;&lt;tr&gt;&lt;td&gt;&lt;h3&gt;docstring&lt;/h3&gt;&lt;/td&gt;&lt;td&gt;&lt;ol&gt;&lt;li&gt;string of first statement in a module, class, or function considered a docstring&lt;/li&gt;&lt;li&gt;docstring within a triple quotes &quot;&quot;&quot;, summarizing purpose&lt;/li&gt;&lt;li&gt;detail description begins following a blank line&lt;/li&gt;&lt;/ol&gt;&lt;/td&gt;&lt;/tr&gt;&lt;/tbody&gt;&lt;/table&gt; " style="verticalAlign=top;align=left;overflow=fill;fontSize=12;fontFamily=Helvetica;html=1" parent="XXuJ3og1RrRb2iz00N9P-1" vertex="1">
                    <mxGeometry x="15" y="15" width="650" height="330" as="geometry"/>
                </mxCell>
            </root>
        </mxGraphModel>
    </diagram>
    <diagram id="v2UzaKj1gJVcHnt0x7ef" name="References">
        &#xa;        
        <mxGraphModel dx="822" dy="480" grid="1" gridSize="10" guides="1" tooltips="1" connect="1" arrows="1" fold="1" page="1" pageScale="1" pageWidth="827" pageHeight="1169" math="0" shadow="0">
            &#xa;            
            <root>
                &#xa;                
                <mxCell id="qfojf9myHXY8cHeEibKA-0"/>
                &#xa;                
                <mxCell id="qfojf9myHXY8cHeEibKA-1" parent="qfojf9myHXY8cHeEibKA-0"/>
                &#xa;                
                <mxCell id="qfojf9myHXY8cHeEibKA-2" value="&lt;table cellpadding=&quot;4&quot; cellspacing=&quot;0&quot; border=&quot;1&quot; style=&quot;font-size: 1em ; width: 100% ; height: 100%&quot;&gt;&lt;tbody&gt;&lt;tr&gt;&lt;th&gt;Type&lt;/th&gt;&lt;th&gt;Content&lt;/th&gt;&lt;/tr&gt;&lt;tr&gt;&lt;td&gt;Font-family&lt;/td&gt;&lt;td&gt;&lt;ol&gt;&lt;li&gt;&lt;a href=&quot;https://zhuanlan.zhihu.com/p/139652407&quot;&gt;如何优雅的选择字体(font-family)&lt;/a&gt;&lt;/li&gt;&lt;/ol&gt;&lt;/td&gt;&lt;/tr&gt;&lt;tr&gt;&lt;td&gt;Code&lt;/td&gt;&lt;td&gt;&lt;ol&gt;&lt;li&gt;&lt;a href=&quot;http://docopt.org/&quot;&gt;docopt&lt;/a&gt;&lt;br&gt;&lt;/li&gt;&lt;/ol&gt;&lt;/td&gt;&lt;/tr&gt;&lt;/tbody&gt;&lt;/table&gt; " style="verticalAlign=top;align=left;overflow=fill;fontSize=12;fontFamily=Helvetica;html=1" parent="qfojf9myHXY8cHeEibKA-1" vertex="1">
                    &#xa;                    
                    <mxGeometry x="10" y="10" width="340" height="140" as="geometry"/>
                    &#xa;                
                </mxCell>
                &#xa;            
            </root>
            &#xa;        
        </mxGraphModel>
        &#xa;    
    </diagram>
</mxfile>